<svg width="247" height="247" viewBox="0 0 247 247" fill="none" xmlns="http://www.w3.org/2000/svg">
<rect width="247" height="247" fill="black"/>
<path d="M171.632 130.808C172.064 130.664 172.712 130.592 173.576 130.592C176.024 130.592 177.248 132.176 177.248 135.344C177.248 137.072 176.852 138.548 176.06 139.772C175.34 140.924 174.188 141.644 172.604 141.932C166.052 143.156 159.608 144.524 153.272 146.036L152.948 148.628C150.932 162.812 146.9 173.288 140.852 180.056C134.876 186.896 127.388 190.316 118.388 190.316C112.412 190.316 107.768 188.84 104.456 185.888C101.216 183.008 99.5964 179.3 99.5964 174.764C99.5964 167.204 102.98 160.472 109.748 154.568C116.516 148.664 126.776 143.444 140.528 138.908L142.688 123.68C142.976 121.952 143.336 119.648 143.768 116.768C140.384 125.696 136.064 132.356 130.808 136.748C125.552 141.14 119.684 143.336 113.204 143.336C107.012 143.336 102.296 141.464 99.0564 137.72C95.8164 133.904 94.1964 129.008 94.1964 123.032C94.1964 120.368 94.4844 117.452 95.0604 114.284C95.6364 111.044 96.5364 106.688 97.7604 101.216C98.8404 96.248 99.6324 92.288 100.136 89.336C100.712 86.384 101 83.756 101 81.452C101 77.996 99.6684 76.268 97.0044 76.268C94.9164 76.268 92.4324 77.312 89.5524 79.4C86.7444 81.416 83.7564 84.548 80.5884 88.796C79.5804 90.164 78.4644 90.848 77.2404 90.848C76.2324 90.848 75.3324 90.38 74.5404 89.444C73.8204 88.436 73.4604 87.32 73.4604 86.096C73.4604 83.864 74.4684 81.344 76.4844 78.536C83.8284 68.456 92.4324 63.416 102.296 63.416C106.688 63.416 110.108 64.748 112.556 67.412C115.076 70.076 116.336 74 116.336 79.184C116.336 82.928 115.976 86.78 115.256 90.74C114.608 94.628 113.6 99.596 112.232 105.644C111.368 109.244 110.72 112.16 110.288 114.392C109.856 116.552 109.64 118.352 109.64 119.792C109.64 123.464 110.288 126.092 111.584 127.676C112.88 129.26 115.148 130.052 118.388 130.052C122.276 130.052 126.236 127.928 130.268 123.68C134.372 119.36 138.044 112.844 141.284 104.132C144.596 95.42 146.972 84.764 148.412 72.164C148.772 68.996 149.6 66.764 150.896 65.468C152.192 64.1 154.064 63.416 156.512 63.416C161.552 63.416 164.072 65.936 164.072 70.976C164.072 71.84 164.036 72.524 163.964 73.028C162.452 83.756 161.048 93.44 159.752 102.08C159.032 107.264 158.24 112.592 157.376 118.064C156.584 123.536 155.792 129.08 155 134.696C160.256 133.256 165.8 131.96 171.632 130.808ZM138.908 150.248C121.484 156.296 112.772 163.64 112.772 172.28C112.772 174.296 113.384 175.952 114.608 177.248C115.904 178.616 117.704 179.3 120.008 179.3C130.016 179.3 136.28 169.868 138.8 151.004L138.908 150.248Z" fill="white"/>
</svg>
